<?xml version="1.0" encoding="iso-8859-1"?>
<!-- Generator: Adobe Illustrator 19.0.0, SVG Export Plug-In . SVG Version: 6.00 Build 0)  -->
<svg version="1.1" id="Layer_1" xmlns="http://www.w3.org/2000/svg" xmlns:xlink="http://www.w3.org/1999/xlink" x="0px" y="0px"
	 viewBox="0 0 299.7 299.7" style="enable-background:new 0 0 299.7 299.7;" xml:space="preserve">
<g>
	<g>
		<g>
			<path d="M292.95,47.768H6.75c-3.728,0-6.75,3.022-6.75,6.75c0,12.721,0,185.951,0,190.663c0,3.728,3.022,6.75,6.75,6.75h47.564
				c3.728,0,6.75-3.022,6.75-6.75v-136.35h119.224c0,1.836,0,134.58,0,136.35c0,3.728,3.022,6.75,6.75,6.75H292.95
				c3.728,0,6.75-3.022,6.75-6.75c0-2.076,0-188.939,0-190.664C299.7,50.791,296.678,47.768,292.95,47.768z M47.564,238.432H13.5
				v-129.6h34.064V238.432z M286.2,238.432h-92.412v-58.05H286.2V238.432z M286.2,166.882h-92.412v-58.05H286.2V166.882z
				 M286.2,95.332c-4.09,0-264.432,0-272.7,0V61.268h272.7V95.332z"/>
			<path d="M223.667,144.607h32.653c3.728,0,6.75-3.022,6.75-6.75s-3.022-6.75-6.75-6.75h-32.653c-3.728,0-6.75,3.022-6.75,6.75
				S219.939,144.607,223.667,144.607z"/>
			<path d="M223.667,216.157h32.653c3.728,0,6.75-3.022,6.75-6.75c0-3.728-3.022-6.75-6.75-6.75h-32.653
				c-3.728,0-6.75,3.022-6.75,6.75C216.917,213.134,219.939,216.157,223.667,216.157z"/>
		</g>
	</g>
</g>
<g>
</g>
<g>
</g>
<g>
</g>
<g>
</g>
<g>
</g>
<g>
</g>
<g>
</g>
<g>
</g>
<g>
</g>
<g>
</g>
<g>
</g>
<g>
</g>
<g>
</g>
<g>
</g>
<g>
</g>
</svg>
