<?xml version="1.0" encoding="iso-8859-1"?>
<!-- Generator: Adobe Illustrator 19.0.0, SVG Export Plug-In . SVG Version: 6.00 Build 0)  -->
<svg version="1.1" id="Layer_1" xmlns="http://www.w3.org/2000/svg" xmlns:xlink="http://www.w3.org/1999/xlink" x="0px" y="0px"
	 viewBox="0 0 512 512" style="enable-background:new 0 0 512 512;" xml:space="preserve">
<g>
	<g>
		<polygon points="125.754,426.667 125.754,363.789 107.789,363.789 107.789,426.667 0,426.667 0,444.632 107.789,444.632 
			125.754,444.632 512,444.632 512,426.667 		"/>
	</g>
</g>
<g>
	<g>
		<polygon points="197.614,336.842 197.614,273.965 179.649,273.965 179.649,336.842 80.842,336.842 80.842,354.807 
			179.649,354.807 197.614,354.807 215.579,354.807 215.579,336.842 		"/>
	</g>
</g>
<g>
	<g>
		<polygon points="269.474,247.018 269.474,184.14 251.509,184.14 251.509,247.018 152.702,247.018 152.702,264.982 
			251.509,264.982 269.474,264.982 287.439,264.982 287.439,247.018 		"/>
	</g>
</g>
<g>
	<g>
		<polygon points="341.333,157.193 341.333,94.316 323.368,94.316 323.368,157.193 224.561,157.193 224.561,175.158 
			323.368,175.158 341.333,175.158 359.298,175.158 359.298,157.193 		"/>
	</g>
</g>
<g>
	<g>
		<rect x="296.421" y="67.368" width="134.737" height="17.965"/>
	</g>
</g>
<g>
</g>
<g>
</g>
<g>
</g>
<g>
</g>
<g>
</g>
<g>
</g>
<g>
</g>
<g>
</g>
<g>
</g>
<g>
</g>
<g>
</g>
<g>
</g>
<g>
</g>
<g>
</g>
<g>
</g>
</svg>
