<?xml version="1.0" encoding="iso-8859-1"?>
<!-- Generator: Adobe Illustrator 19.0.0, SVG Export Plug-In . SVG Version: 6.00 Build 0)  -->
<svg version="1.1" id="Layer_1" xmlns="http://www.w3.org/2000/svg" xmlns:xlink="http://www.w3.org/1999/xlink" x="0px" y="0px"
	 viewBox="0 0 512 512" style="enable-background:new 0 0 512 512;" xml:space="preserve">
<g>
	<g>
		<path d="M43.323,336.489c-5.632,0-10.199,4.567-10.199,10.199v9.068c0,5.632,4.567,10.199,10.199,10.199
			c5.632,0,10.199-4.567,10.199-10.199v-9.068C53.522,341.056,48.955,336.489,43.323,336.489z"/>
	</g>
</g>
<g>
	<g>
		<path d="M43.323,382.84c-5.632,0-10.199,4.567-10.199,10.199v74.565c0,5.632,4.567,10.199,10.199,10.199
			c5.632,0,10.199-4.567,10.199-10.199V393.04C53.522,387.408,48.955,382.84,43.323,382.84z"/>
	</g>
</g>
<g>
	<g>
		<path d="M501.801,170.058H342.723L182.547,6.032c-1.912-1.958-4.53-3.066-7.268-3.074c-0.01,0-0.019,0-0.029,0
			c-2.726,0-5.339,1.091-7.256,3.032l-67.391,68.228V39.609c0-5.632-4.567-10.199-10.199-10.199s-10.199,4.567-10.199,10.199V94.87
			L2.943,173.091c-0.006,0.006-0.006,0.011-0.011,0.017C1.12,174.949,0,177.471,0,180.258v318.585
			c0,5.632,4.567,10.199,10.199,10.199h491.602c5.632,0,10.199-4.567,10.199-10.199V180.258
			C512,174.626,507.433,170.058,501.801,170.058z M175.209,27.713l139.003,142.345H34.609L175.209,27.713z M224.722,488.644H123.905
			V332.27h100.817V488.644z M328.228,488.644H245.12V322.07c0-5.632-4.567-10.199-10.199-10.199H113.706
			c-5.632,0-10.199,4.567-10.199,10.199v166.573H20.398V190.457h307.829V488.644z M491.602,488.644H348.626V280.306h142.976V488.644
			z M491.602,259.907H348.626v-69.45h142.976V259.907z"/>
	</g>
</g>
<g>
</g>
<g>
</g>
<g>
</g>
<g>
</g>
<g>
</g>
<g>
</g>
<g>
</g>
<g>
</g>
<g>
</g>
<g>
</g>
<g>
</g>
<g>
</g>
<g>
</g>
<g>
</g>
<g>
</g>
</svg>
