<?xml version="1.0" encoding="iso-8859-1"?>
<!-- Generator: Adobe Illustrator 19.0.0, SVG Export Plug-In . SVG Version: 6.00 Build 0)  -->
<svg version="1.1" id="Layer_1" xmlns="http://www.w3.org/2000/svg" xmlns:xlink="http://www.w3.org/1999/xlink" x="0px" y="0px"
	 viewBox="0 0 512 512" style="enable-background:new 0 0 512 512;" xml:space="preserve">
<g>
	<g>
		<path d="M0,0v512h512V0H0z M496,496h-480V16h480V496z"/>
	</g>
</g>
<g>
	<g>
		<path d="M25.19,25.231v462.623h462.623V25.231H25.19z M472.149,472.189H40.855V40.896h431.294V472.189z"/>
	</g>
</g>
<g>
	<g>
		<path d="M168,264c-52.935,0-96,43.065-96,96s43.066,96,96,96s96-43.065,96-96C264,307.065,220.934,264,168,264z M168,440
			c-44.112,0-80-35.887-80-80S123.888,280,168,280s80,35.887,80,79.999S212.112,440,168,440z"/>
	</g>
</g>
<g>
	<g>
		<path d="M168,56c-52.935,0-96,43.065-96,95.999C72,204.935,115.066,248,168,248s96-43.066,96-96.001C264,99.065,220.934,56,168,56
			z M168,232.001c-44.112,0-80-35.888-80-80c0-44.111,35.888-79.999,80-79.999s80,35.887,80,79.999S212.112,232.001,168,232.001z"/>
	</g>
</g>
<g>
	<g>
		<path d="M368,56.001c-35.29,0-64,28.709-64,63.999s28.71,64,64,64c35.29,0,64-28.71,64-64S403.29,56.001,368,56.001z M368,168
			c-26.468,0-48-21.532-48-48s21.532-47.999,48-47.999c26.468,0,48,21.531,48,47.999S394.468,168,368,168z"/>
	</g>
</g>
<g>
	<g>
		<path d="M368,208.002c-35.29,0-64,28.709-64,63.999c0,35.29,28.71,64,64,64c35.29,0,64-28.71,64-64S403.29,208.002,368,208.002z
			 M368,320c-26.468,0-48-21.532-48-48s21.532-47.999,48-47.999c26.468,0,48,21.531,48,47.999S394.468,320,368,320z"/>
	</g>
</g>
<g>
	<g>
		<path d="M288,352V456h160V352H288z M432,440H304v-71.999H432V440z"/>
	</g>
</g>
<g>
	<g>
		<path d="M368,232c-22.057,0-40,17.945-40,40.001c0,22.055,17.943,40.001,40,40.001c22.057,0,40-17.945,40-40.001
			S390.056,232,368,232z M368,295.998c-13.233,0-24-10.767-24-23.999C344,258.767,354.767,248,368,248c13.233,0,24,10.767,24,23.999
			C392,285.232,381.233,295.998,368,295.998z"/>
	</g>
</g>
<g>
	<g>
		<path d="M368,79.999c-22.057,0-40,17.945-40,40.001c0,22.055,17.943,40.001,40,40.001c22.057,0,40-17.945,40-40.001
			C408,97.944,390.056,79.999,368,79.999z M368,143.999c-13.233,0-24-10.767-24-23.999c0-13.232,10.767-23.999,24-23.999
			c13.233,0,24,10.766,24,23.999C392,133.233,381.233,143.999,368,143.999z"/>
	</g>
</g>
<g>
	<g>
		<path d="M168,80.001c-39.701,0-72,32.299-72,71.999c0,39.701,32.299,72,72,72s72-32.299,72-72
			C240,112.299,207.701,80.001,168,80.001z M168,208.001c-30.879,0-56-25.122-56-56c0-30.879,25.122-55.999,56-55.999
			c30.879,0,55.999,25.122,55.999,55.999C223.999,182.879,198.878,208.001,168,208.001z"/>
	</g>
</g>
<g>
	<g>
		<path d="M168,288.002c-39.701,0-72,32.299-72,71.999S128.299,432,168,432s72-32.299,72-71.999S207.701,288.002,168,288.002z
			 M168,415.999c-30.879,0-56-25.122-56-55.999C112,329.122,137.121,304,168,304c30.879,0,55.999,25.122,55.999,55.999
			C223.999,390.877,198.878,415.999,168,415.999z"/>
	</g>
</g>
<g>
	<g>
		<rect x="319.68" y="384.468" width="15.664" height="15.664"/>
	</g>
</g>
<g>
	<g>
		<rect x="319.68" y="408.486" width="15.664" height="15.664"/>
	</g>
</g>
<g>
	<g>
		<rect x="376.071" y="384.468" width="39.683" height="15.664"/>
	</g>
</g>
<g>
	<g>
		<rect x="376.071" y="408.486" width="39.683" height="15.664"/>
	</g>
</g>
<g>
	<g>
		<rect x="343.698" y="384.468" width="15.664" height="15.664"/>
	</g>
</g>
<g>
	<g>
		<rect x="343.698" y="408.486" width="15.664" height="15.664"/>
	</g>
</g>
<g>
</g>
<g>
</g>
<g>
</g>
<g>
</g>
<g>
</g>
<g>
</g>
<g>
</g>
<g>
</g>
<g>
</g>
<g>
</g>
<g>
</g>
<g>
</g>
<g>
</g>
<g>
</g>
<g>
</g>
</svg>
