<?xml version="1.0" encoding="iso-8859-1"?>
<!-- Generator: Adobe Illustrator 17.1.0, SVG Export Plug-In . SVG Version: 6.00 Build 0)  -->
<!DOCTYPE svg PUBLIC "-//W3C//DTD SVG 1.1//EN" "http://www.w3.org/Graphics/SVG/1.1/DTD/svg11.dtd">
<svg version="1.1" id="Capa_1" xmlns="http://www.w3.org/2000/svg" xmlns:xlink="http://www.w3.org/1999/xlink" x="0px" y="0px"
	 viewBox="0 0 168.131 168.131" style="enable-background:new 0 0 168.131 168.131;" xml:space="preserve">
<path style="fill:#000001;" d="M145.232,0H22.899C10.272,0,0,10.272,0,22.899v122.333c0,12.626,10.272,22.898,22.899,22.898h122.333
	c12.626,0,22.898-10.272,22.898-22.898V22.899C168.131,10.272,157.858,0,145.232,0z M25.917,143.613
	c-0.771,0-1.398-0.627-1.398-1.399V25.917c0-0.771,0.627-1.398,1.398-1.398h116.297c0.771,0,1.399,0.627,1.399,1.398v116.297
	c0,0.771-0.628,1.399-1.399,1.399H25.917z M71.227,34.94h-9.49c-4.143,0-7.5,3.358-7.5,7.5v83.251c0,4.142,3.357,7.5,7.5,7.5h9.49
	c4.143,0,7.5-3.358,7.5-7.5v-19.169c8.409-0.085,17.094-0.895,24.542-5.1c10.082-5.692,15.194-16.022,15.194-30.703
	C118.463,34.94,84.146,34.94,71.227,34.94z M90.867,81.057c-3.103,1.735-8.063,2-12.141,2.014V60.379
	c12.184,0.641,16.095,3.635,16.095,11.237C94.821,78.845,92.05,80.395,90.867,81.057z"/>
<g>
</g>
<g>
</g>
<g>
</g>
<g>
</g>
<g>
</g>
<g>
</g>
<g>
</g>
<g>
</g>
<g>
</g>
<g>
</g>
<g>
</g>
<g>
</g>
<g>
</g>
<g>
</g>
<g>
</g>
</svg>
