<?xml version="1.0" encoding="iso-8859-1"?>
<!-- Generator: Adobe Illustrator 19.0.0, SVG Export Plug-In . SVG Version: 6.00 Build 0)  -->
<svg version="1.1" id="Layer_1" xmlns="http://www.w3.org/2000/svg" xmlns:xlink="http://www.w3.org/1999/xlink" x="0px" y="0px"
	 viewBox="0 0 512 512" style="enable-background:new 0 0 512 512;" xml:space="preserve">
<g>
	<g>
		<path d="M422.268,21.113v-2.639C422.268,8.288,413.98,0,403.794,0H382.68c-10.186,0-18.474,8.288-18.474,18.474v2.639h-79.175
			v-2.639C285.031,8.288,276.743,0,266.557,0h-21.113c-10.186,0-18.474,8.288-18.474,18.474v2.639h-79.175v-2.639
			C147.794,8.288,139.506,0,129.32,0h-21.113C98.02,0,89.732,8.288,89.732,18.474v2.639H0V512h512V21.113H422.268z M380.041,18.474
			c0-1.43,1.209-2.639,2.639-2.639h21.113c1.43,0,2.639,1.209,2.639,2.639V63.34h-26.392V18.474z M242.804,18.474
			c0-1.43,1.209-2.639,2.639-2.639h21.113c1.43,0,2.639,1.209,2.639,2.639V63.34h-26.392V18.474z M105.567,18.474
			c0-1.43,1.209-2.639,2.639-2.639h21.113c1.43,0,2.639,1.209,2.639,2.639V63.34h-26.392V18.474z M496.165,496.165H15.835V163.629
			h480.33V496.165z M496.165,147.794H15.835v-26.392h424.907v-15.835H15.835V36.948h73.897v42.227h58.062V36.948h79.175v42.227
			h58.062V36.948h79.175v42.227h58.062V36.948h73.897V147.794z"/>
	</g>
</g>
<g>
	<g>
		<path d="M248.082,184.742v68.619H36.948v221.691h332.536v-63.34h105.567V184.742H248.082z M229.292,269.196l-26.075,16.949
			l-26.075-16.949H229.292z M229.292,321.979h-52.15l26.075-16.949L229.292,321.979z M158.351,275.868l30.339,19.72l-30.339,19.72
			V275.868z M52.784,417.778l29.477,17.686l-29.477,17.687V417.778z M73.45,411.711h48.398l-24.199,14.52L73.45,411.711z
			 M73.45,459.216l24.199-14.52l24.199,14.52H73.45z M142.515,453.15l-29.477-17.686l29.477-17.687V453.15z M142.515,395.876H52.784
			v-58.062h89.732V395.876z M142.515,321.979H52.784v-52.784h89.732V321.979z M248.082,459.216h-89.732v-47.505h89.732V459.216z
			 M248.082,395.876h-89.732v-58.062h89.732V395.876z M248.082,315.308l-30.339-19.72l30.339-19.72V315.308z M334.859,200.577
			l-26.075,16.949l-26.075-16.949H334.859z M308.784,359.588l-29.031-21.773h58.062L308.784,359.588z M308.798,378.918
			l26.074,16.958h-52.164L308.798,378.918z M282.708,321.979l26.075-16.949l26.075,16.949H282.708z M282.708,269.196h52.15
			l-26.075,16.949L282.708,269.196z M282.708,253.361l26.075-16.949l26.075,16.949H282.708z M263.918,207.249l30.339,19.72
			l-30.339,19.72V207.249z M263.918,275.868l30.339,19.72l-30.339,19.72V275.868z M263.918,345.732l31.051,23.289l-31.051,20.183
			V345.732z M353.649,459.216h-89.732v-47.505h89.732V459.216z M353.649,389.204l-31.051-20.183l31.051-23.289V389.204z
			 M353.649,315.308l-30.339-19.72l30.339-19.72V315.308z M353.649,246.689l-30.339-19.72l30.339-19.72V246.689z M440.426,200.577
			l-26.075,16.949l-26.075-16.949H440.426z M440.426,253.361h-52.15l26.075-16.949L440.426,253.361z M369.485,207.249l30.339,19.72
			l-30.339,19.72V207.249z M459.216,395.876h-89.732v-58.062h89.732V395.876z M459.216,321.979h-89.732v-52.784h89.732V321.979z
			 M459.216,246.689l-30.339-19.72l30.339-19.72V246.689z"/>
	</g>
</g>
<g>
</g>
<g>
</g>
<g>
</g>
<g>
</g>
<g>
</g>
<g>
</g>
<g>
</g>
<g>
</g>
<g>
</g>
<g>
</g>
<g>
</g>
<g>
</g>
<g>
</g>
<g>
</g>
<g>
</g>
</svg>
