<?xml version="1.0" encoding="iso-8859-1"?>
<!-- Generator: Adobe Illustrator 19.0.0, SVG Export Plug-In . SVG Version: 6.00 Build 0)  -->
<svg version="1.1" id="Layer_1" xmlns="http://www.w3.org/2000/svg" xmlns:xlink="http://www.w3.org/1999/xlink" x="0px" y="0px"
	 viewBox="0 0 474.819 474.819" style="enable-background:new 0 0 474.819 474.819;" xml:space="preserve">
<g transform="translate(0 -540.36)">
	<g>
		<g>
			<path d="M270.106,878.779c0-0.2-0.1-0.3-0.1-0.5c-4-15.1-17.2-25.7-32.1-25.7h-0.8c-0.2,0-0.3,0-0.5,0c-8.4,0.5-15.3-5-17-13.4
				c-1.6-8.1,2.7-16.3,10.3-19.5c7.6-3.2,16.8-0.4,20.9,6.3c2.2,3.5,6.8,4.6,10.3,2.4c3.5-2.2,4.6-6.8,2.4-10.3
				c-4.3-7-11.1-11.7-18.7-13.8v-20.3c0-4.1-3.4-7.5-7.5-7.5c-4.1,0-7.5,3.4-7.5,7.5v19.9c-2,0.4-4,1-5.9,1.9
				c-14.1,6-22.2,21.3-19.2,36.3c3.1,15.6,16.7,26.3,32.4,25.4h0.6c8,0,15.2,5.9,17.5,14.4c1.5,8.1-3,16-11,19.2
				c-0.1,0-0.1,0-0.2,0.1c-7.5,3.2-15.9,0.5-20.2-6.3c-2.2-3.5-6.8-4.6-10.3-2.5c-3.5,2.2-4.6,6.8-2.5,10.3
				c4.4,7.1,11.1,11.9,18.7,13.9v20.2c0,4.1,3.4,7.5,7.5,7.5c4.1,0,7.5-3.4,7.5-7.5v-20.1c1.7-0.4,3.4-1,5.1-1.7
				C264.906,909.079,273.206,894.179,270.106,878.779L270.106,878.779z"/>
			<path d="M357.206,683.779L357.206,683.779l-43.6-35.2c2.4-6.5,4-13.3,4.6-20.4c0-0.1,0-0.1,0-0.2c2.7-40.2-25-76.9-64.4-85.4
				c-19.5-4.5-40.1-2.1-57.8,6.7c-17.9,8.9-31.7,23.9-39,42.1c-1.5,3.8,0.3,8.2,4.2,9.7c3.8,1.5,8.2-0.3,9.7-4.2
				c12.1-30.3,46.3-47.4,79.5-39.7h0.1c32.1,6.9,54.7,36.9,52.6,69.7c-0.4,4-1.1,7.8-2.1,11.6l-59.3-47.9c-2.8-2.2-6.7-2.2-9.4,0
				l-114.6,93.1c-1.8,1.4-2.8,3.6-2.8,5.8v318.2c0,4.1,3.4,7.5,7.5,7.5h230c4.1,0,7.5-3.4,7.5-7.5v-318.2
				C360.006,687.379,359.006,685.279,357.206,683.779z M345.106,1000.379h-0.1h-215v-307.2l107.1-87.1l58,46.8
				c-5.3,9.5-12.9,17.5-22.1,23.5c-1.9-3.2-4.2-6.2-7-8.8c-8.1-8-18.7-12.2-29.8-12.1c-10.8,0.2-20.9,4.5-28.2,12.3
				c-7.6,8-11.8,18.9-11.4,29.8c0.3,10.6,4.7,20.5,12.4,27.7c7.4,7.7,17.3,12,28.1,12.2c0.2,0,0.4,0,0.6,0c11,0,21.3-4.3,29.3-12.2
				c0.1-0.1,0.1-0.1,0.2-0.2c7.6-8,11.8-18.9,11.4-29.8c0-1.5-0.2-3-0.4-4.5c11.8-7,21.8-16.8,28.8-28.5l38.1,30.7V1000.379z
				 M240.206,702.579c0.2,0,0.3,0,0.5,0c7.9-0.5,15.6-2.1,22.8-4.7c-0.3,6.3-2.9,12.4-7.2,17c-5.2,5.1-11.9,7.8-19,7.7
				c-6.8-0.1-13-2.8-17.6-7.7c-0.1-0.1-0.2-0.2-0.3-0.3c-4.8-4.5-7.6-10.6-7.8-17.3c-0.2-7,2.5-13.9,7.3-19
				c4.6-4.8,10.8-7.5,17.6-7.7c0.1,0,0.3,0,0.4,0c7,0,13.6,2.8,18.7,7.8c0.1,0.1,0.1,0.1,0.2,0.2c1.5,1.4,2.8,3,3.9,4.7
				c-6.3,2.4-12.9,3.8-19.9,4.3c-4.2,0.3-7.3,3.8-7.1,8C232.906,699.579,236.206,702.579,240.206,702.579z"/>
		</g>
	</g>
</g>
<g>
</g>
<g>
</g>
<g>
</g>
<g>
</g>
<g>
</g>
<g>
</g>
<g>
</g>
<g>
</g>
<g>
</g>
<g>
</g>
<g>
</g>
<g>
</g>
<g>
</g>
<g>
</g>
<g>
</g>
</svg>
